%TF.GenerationSoftware,KiCad,Pcbnew,8.0.2-1*%
%TF.CreationDate,2024-11-16T17:30:41-05:00*%
%TF.ProjectId,JB_PCB,4a425f50-4342-42e6-9b69-6361645f7063,rev?*%
%TF.SameCoordinates,Original*%
%TF.FileFunction,Soldermask,Bot*%
%TF.FilePolarity,Negative*%
%FSLAX46Y46*%
G04 Gerber Fmt 4.6, Leading zero omitted, Abs format (unit mm)*
G04 Created by KiCad (PCBNEW 8.0.2-1) date 2024-11-16 17:30:41*
%MOMM*%
%LPD*%
G01*
G04 APERTURE LIST*
%ADD10C,3.200000*%
%ADD11C,1.905000*%
%ADD12C,1.524000*%
%ADD13C,2.413000*%
%ADD14O,1.600000X1.600000*%
%ADD15R,1.600000X1.600000*%
G04 APERTURE END LIST*
D10*
%TO.C,REF\u002A\u002A*%
X158000000Y-139000000D03*
%TD*%
%TO.C,REF\u002A\u002A*%
X111000000Y-49000000D03*
%TD*%
D11*
%TO.C,PWMGND1*%
X152946200Y-108145100D03*
X152946200Y-103145100D03*
%TD*%
D12*
%TO.C,U1*%
X136210000Y-112610000D03*
X136210000Y-73690000D03*
X133670000Y-73690000D03*
X128590000Y-112610000D03*
X128590000Y-73690000D03*
X131130000Y-73690000D03*
X133670000Y-112610000D03*
X131130000Y-112610000D03*
%TD*%
D11*
%TO.C,PWM2*%
X153000000Y-131000000D03*
X153000000Y-126000000D03*
%TD*%
D13*
%TO.C,MOT_PWR1*%
X131354902Y-133000000D03*
X140854898Y-133000000D03*
%TD*%
%TO.C,J6*%
X115500000Y-135500000D03*
X115500000Y-126000004D03*
%TD*%
%TO.C,J4*%
X115500000Y-113145102D03*
X115500000Y-103645106D03*
%TD*%
%TO.C,J3*%
X115500000Y-91000000D03*
X115500000Y-81500004D03*
%TD*%
%TO.C,J2*%
X115500000Y-59250008D03*
X115500000Y-68750004D03*
%TD*%
%TO.C,ARD_PWR1*%
X140604898Y-61750000D03*
X131104902Y-61750000D03*
%TD*%
D14*
%TO.C,A1*%
X149120000Y-95800000D03*
X149120000Y-93260000D03*
X149120000Y-90720000D03*
X149120000Y-88180000D03*
X149120000Y-85640000D03*
X149120000Y-83100000D03*
X149120000Y-80560000D03*
X149120000Y-78020000D03*
X149120000Y-75480000D03*
X149120000Y-72940000D03*
X149120000Y-70400000D03*
X149120000Y-67860000D03*
X149120000Y-65320000D03*
X149120000Y-62780000D03*
X149120000Y-60240000D03*
X164360000Y-60240000D03*
X164360000Y-62780000D03*
X164360000Y-65320000D03*
X164360000Y-67860000D03*
X164360000Y-70400000D03*
X164360000Y-72940000D03*
X164360000Y-75480000D03*
X164360000Y-78020000D03*
X164360000Y-80560000D03*
X164360000Y-83100000D03*
X164360000Y-85640000D03*
X164360000Y-88180000D03*
X164360000Y-90720000D03*
X164360000Y-93260000D03*
D15*
X164360000Y-95800000D03*
%TD*%
D11*
%TO.C,PWM1*%
X153000000Y-119500000D03*
X153000000Y-114500000D03*
%TD*%
M02*
