M48
; DRILL file {KiCad 8.0.2-1} date 2024-11-16T17:30:33-0500
; FORMAT={-:-/ absolute / inch / decimal}
; #@! TF.CreationDate,2024-11-16T17:30:33-05:00
; #@! TF.GenerationSoftware,Kicad,Pcbnew,8.0.2-1
; #@! TF.FileFunction,Plated,1,2,PTH
FMAT,2
INCH
; #@! TA.AperFunction,Plated,PTH,ViaDrill
T1C0.0118
; #@! TA.AperFunction,Plated,PTH,ComponentDrill
T2C0.0300
; #@! TA.AperFunction,Plated,PTH,ComponentDrill
T3C0.0394
; #@! TA.AperFunction,Plated,PTH,ComponentDrill
T4C0.0550
; #@! TA.AperFunction,Plated,PTH,ComponentDrill
T5C0.0750
%
G90
G05
T1
X6.122Y-2.9626
T2
X5.0626Y-2.9012
X5.0626Y-4.4335
X5.1626Y-2.9012
X5.1626Y-4.4335
X5.2626Y-2.9012
X5.2626Y-4.4335
X5.3626Y-2.9012
X5.3626Y-4.4335
T3
X5.8709Y-2.3717
X5.8709Y-2.4717
X5.8709Y-2.5717
X5.8709Y-2.6717
X5.8709Y-2.7717
X5.8709Y-2.8717
X5.8709Y-2.9717
X5.8709Y-3.0717
X5.8709Y-3.1717
X5.8709Y-3.2717
X5.8709Y-3.3717
X5.8709Y-3.4717
X5.8709Y-3.5717
X5.8709Y-3.6717
X5.8709Y-3.7717
X6.4709Y-2.3717
X6.4709Y-2.4717
X6.4709Y-2.5717
X6.4709Y-2.6717
X6.4709Y-2.7717
X6.4709Y-2.8717
X6.4709Y-2.9717
X6.4709Y-3.0717
X6.4709Y-3.1717
X6.4709Y-3.2717
X6.4709Y-3.3717
X6.4709Y-3.4717
X6.4709Y-3.5717
X6.4709Y-3.6717
X6.4709Y-3.7717
T4
X6.0215Y-4.0608
X6.0215Y-4.2577
X6.0236Y-4.5079
X6.0236Y-4.7047
X6.0236Y-4.9606
X6.0236Y-5.1575
T5
X4.5472Y-2.3327
X4.5472Y-2.7067
X4.5472Y-3.2087
X4.5472Y-3.5827
X4.5472Y-4.0805
X4.5472Y-4.4545
X4.5472Y-4.9606
X4.5472Y-5.3346
X5.1616Y-2.4311
X5.1715Y-5.2362
X5.5356Y-2.4311
X5.5455Y-5.2362
M30
