%TF.GenerationSoftware,KiCad,Pcbnew,8.0.2-1*%
%TF.CreationDate,2024-11-16T17:30:41-05:00*%
%TF.ProjectId,JB_PCB,4a425f50-4342-42e6-9b69-6361645f7063,rev?*%
%TF.SameCoordinates,Original*%
%TF.FileFunction,Copper,L1,Top*%
%TF.FilePolarity,Positive*%
%FSLAX46Y46*%
G04 Gerber Fmt 4.6, Leading zero omitted, Abs format (unit mm)*
G04 Created by KiCad (PCBNEW 8.0.2-1) date 2024-11-16 17:30:41*
%MOMM*%
%LPD*%
G01*
G04 APERTURE LIST*
%TA.AperFunction,ComponentPad*%
%ADD10C,1.905000*%
%TD*%
%TA.AperFunction,ComponentPad*%
%ADD11C,1.524000*%
%TD*%
%TA.AperFunction,ComponentPad*%
%ADD12C,2.413000*%
%TD*%
%TA.AperFunction,ComponentPad*%
%ADD13O,1.600000X1.600000*%
%TD*%
%TA.AperFunction,ComponentPad*%
%ADD14R,1.600000X1.600000*%
%TD*%
%TA.AperFunction,ViaPad*%
%ADD15C,0.600000*%
%TD*%
%TA.AperFunction,Conductor*%
%ADD16C,0.200000*%
%TD*%
%TA.AperFunction,Conductor*%
%ADD17C,0.800000*%
%TD*%
G04 APERTURE END LIST*
D10*
%TO.P,PWMGND1,1,Pin_1*%
%TO.N,Net-(ARD_PWR1-Pin_1)*%
X152946200Y-108145100D03*
%TO.P,PWMGND1,2,Pin_2*%
X152946200Y-103145100D03*
%TD*%
D11*
%TO.P,U1,VCC,VCC*%
%TO.N,Net-(A1-+5V)*%
X136210000Y-112610000D03*
%TO.P,U1,RO,RO*%
%TO.N,Net-(A1-D10)*%
X136210000Y-73690000D03*
%TO.P,U1,RE,RE*%
%TO.N,Net-(A1-D12)*%
X133670000Y-73690000D03*
%TO.P,U1,GND,GND*%
%TO.N,Net-(ARD_PWR1-Pin_1)*%
X128590000Y-112610000D03*
%TO.P,U1,DI,DI*%
%TO.N,Net-(A1-D11)*%
X128590000Y-73690000D03*
%TO.P,U1,DE,DE*%
%TO.N,Net-(A1-D12)*%
X131130000Y-73690000D03*
%TO.P,U1,B*%
%TO.N,N/C*%
X133670000Y-112610000D03*
%TO.P,U1,A*%
X131130000Y-112610000D03*
%TD*%
D10*
%TO.P,PWM2,1,Pin_1*%
%TO.N,Net-(A1-D5)*%
X153000000Y-131000000D03*
%TO.P,PWM2,2,Pin_2*%
%TO.N,Net-(A1-D6)*%
X153000000Y-126000000D03*
%TD*%
D12*
%TO.P,MOT_PWR1,1,Pin_1*%
%TO.N,Net-(J2-Pin_1)*%
X131354902Y-133000000D03*
%TO.P,MOT_PWR1,2,Pin_2*%
%TO.N,Net-(J2-Pin_2)*%
X140854898Y-133000000D03*
%TD*%
%TO.P,J6,1,Pin_1*%
%TO.N,Net-(J2-Pin_1)*%
X115500000Y-135500000D03*
%TO.P,J6,2,Pin_2*%
%TO.N,Net-(J2-Pin_2)*%
X115500000Y-126000004D03*
%TD*%
%TO.P,J4,1,Pin_1*%
%TO.N,Net-(J2-Pin_1)*%
X115500000Y-113145102D03*
%TO.P,J4,2,Pin_2*%
%TO.N,Net-(J2-Pin_2)*%
X115500000Y-103645106D03*
%TD*%
%TO.P,J3,1,Pin_1*%
%TO.N,Net-(J2-Pin_1)*%
X115500000Y-91000000D03*
%TO.P,J3,2,Pin_2*%
%TO.N,Net-(J2-Pin_2)*%
X115500000Y-81500004D03*
%TD*%
%TO.P,J2,2,Pin_2*%
%TO.N,Net-(J2-Pin_2)*%
X115500000Y-59250008D03*
%TO.P,J2,1,Pin_1*%
%TO.N,Net-(J2-Pin_1)*%
X115500000Y-68750004D03*
%TD*%
%TO.P,ARD_PWR1,2,Pin_2*%
%TO.N,Net-(A1-VIN)*%
X140604898Y-61750000D03*
%TO.P,ARD_PWR1,1,Pin_1*%
%TO.N,Net-(ARD_PWR1-Pin_1)*%
X131104902Y-61750000D03*
%TD*%
D13*
%TO.P,A1,30,VIN*%
%TO.N,Net-(A1-VIN)*%
X149120000Y-95800000D03*
%TO.P,A1,29,GND*%
%TO.N,Net-(ARD_PWR1-Pin_1)*%
X149120000Y-93260000D03*
%TO.P,A1,28,~{RESET}*%
%TO.N,unconnected-(A1-~{RESET}-Pad28)*%
X149120000Y-90720000D03*
%TO.P,A1,27,+5V*%
%TO.N,Net-(A1-+5V)*%
X149120000Y-88180000D03*
%TO.P,A1,26,A7*%
%TO.N,unconnected-(A1-A7-Pad26)*%
X149120000Y-85640000D03*
%TO.P,A1,25,A6*%
%TO.N,unconnected-(A1-A6-Pad25)*%
X149120000Y-83100000D03*
%TO.P,A1,24,A5*%
%TO.N,unconnected-(A1-A5-Pad24)*%
X149120000Y-80560000D03*
%TO.P,A1,23,A4*%
%TO.N,unconnected-(A1-A4-Pad23)*%
X149120000Y-78020000D03*
%TO.P,A1,22,A3*%
%TO.N,unconnected-(A1-A3-Pad22)*%
X149120000Y-75480000D03*
%TO.P,A1,21,A2*%
%TO.N,unconnected-(A1-A2-Pad21)*%
X149120000Y-72940000D03*
%TO.P,A1,20,A1*%
%TO.N,unconnected-(A1-A1-Pad20)*%
X149120000Y-70400000D03*
%TO.P,A1,19,A0*%
%TO.N,unconnected-(A1-A0-Pad19)*%
X149120000Y-67860000D03*
%TO.P,A1,18,AREF*%
%TO.N,unconnected-(A1-AREF-Pad18)*%
X149120000Y-65320000D03*
%TO.P,A1,17,3V3*%
%TO.N,unconnected-(A1-3V3-Pad17)*%
X149120000Y-62780000D03*
%TO.P,A1,16,D13*%
%TO.N,unconnected-(A1-D13-Pad16)*%
X149120000Y-60240000D03*
%TO.P,A1,15,D12*%
%TO.N,Net-(A1-D12)*%
X164360000Y-60240000D03*
%TO.P,A1,14,D11*%
%TO.N,Net-(A1-D11)*%
X164360000Y-62780000D03*
%TO.P,A1,13,D10*%
%TO.N,Net-(A1-D10)*%
X164360000Y-65320000D03*
%TO.P,A1,12,D9*%
%TO.N,Net-(A1-D9)*%
X164360000Y-67860000D03*
%TO.P,A1,11,D8*%
%TO.N,unconnected-(A1-D8-Pad11)*%
X164360000Y-70400000D03*
%TO.P,A1,10,D7*%
%TO.N,unconnected-(A1-D7-Pad10)*%
X164360000Y-72940000D03*
%TO.P,A1,9,D6*%
%TO.N,Net-(A1-D6)*%
X164360000Y-75480000D03*
%TO.P,A1,8,D5*%
%TO.N,Net-(A1-D5)*%
X164360000Y-78020000D03*
%TO.P,A1,7,D4*%
%TO.N,unconnected-(A1-D4-Pad7)*%
X164360000Y-80560000D03*
%TO.P,A1,6,D3*%
%TO.N,Net-(A1-D3)*%
X164360000Y-83100000D03*
%TO.P,A1,5,D2*%
%TO.N,unconnected-(A1-D2-Pad5)*%
X164360000Y-85640000D03*
%TO.P,A1,4,GND*%
%TO.N,Net-(ARD_PWR1-Pin_1)*%
X164360000Y-88180000D03*
%TO.P,A1,3,~{RESET}*%
%TO.N,unconnected-(A1-~{RESET}-Pad3)*%
X164360000Y-90720000D03*
%TO.P,A1,2,D0/RX*%
%TO.N,unconnected-(A1-D0{slash}RX-Pad2)*%
X164360000Y-93260000D03*
D14*
%TO.P,A1,1,D1/TX*%
%TO.N,unconnected-(A1-D1{slash}TX-Pad1)*%
X164360000Y-95800000D03*
%TD*%
D10*
%TO.P,PWM1,1,Pin_1*%
%TO.N,Net-(A1-D3)*%
X153000000Y-119500000D03*
%TO.P,PWM1,2,Pin_2*%
%TO.N,Net-(A1-D9)*%
X153000000Y-114500000D03*
%TD*%
D15*
%TO.N,Net-(A1-D11)*%
X155500000Y-75250000D03*
%TD*%
D16*
%TO.N,Net-(A1-D11)*%
X155500000Y-75250000D02*
X155500000Y-71640000D01*
X155500000Y-71640000D02*
X164360000Y-62780000D01*
%TO.N,Net-(ARD_PWR1-Pin_1)*%
X128590000Y-112610000D02*
X133230000Y-117250000D01*
X133230000Y-117250000D02*
X143841300Y-117250000D01*
X143841300Y-117250000D02*
X152946200Y-108145100D01*
%TO.N,Net-(A1-D9)*%
X153000000Y-114500000D02*
X160000000Y-107500000D01*
X160000000Y-107500000D02*
X160000000Y-72220000D01*
X160000000Y-72220000D02*
X164360000Y-67860000D01*
%TO.N,Net-(A1-D5)*%
X153000000Y-131000000D02*
X162500000Y-121500000D01*
X162500000Y-121500000D02*
X162500000Y-79880000D01*
X162500000Y-79880000D02*
X164360000Y-78020000D01*
%TO.N,Net-(A1-D6)*%
X153000000Y-126000000D02*
X161750000Y-117250000D01*
X161750000Y-117250000D02*
X161750000Y-78090000D01*
X161750000Y-78090000D02*
X164360000Y-75480000D01*
%TO.N,Net-(ARD_PWR1-Pin_1)*%
X152946200Y-103145100D02*
X152946200Y-97086200D01*
X152946200Y-97086200D02*
X149120000Y-93260000D01*
X152946200Y-108145100D02*
X152946200Y-103145100D01*
X131104902Y-61750000D02*
X133354902Y-59500000D01*
X141250000Y-59500000D02*
X143250000Y-61500000D01*
X143250000Y-87390000D02*
X149120000Y-93260000D01*
X133354902Y-59500000D02*
X141250000Y-59500000D01*
X143250000Y-61500000D02*
X143250000Y-87390000D01*
%TO.N,Net-(A1-VIN)*%
X140604898Y-61750000D02*
X140604898Y-87284898D01*
X140604898Y-87284898D02*
X149120000Y-95800000D01*
D17*
%TO.N,Net-(J2-Pin_1)*%
X125750000Y-133000000D02*
X118000000Y-133000000D01*
X118000000Y-133000000D02*
X115500000Y-135500000D01*
X131354902Y-133000000D02*
X125750000Y-133000000D01*
X125750000Y-133000000D02*
X121250000Y-128500000D01*
X121250000Y-71000000D02*
X119000004Y-68750004D01*
X119000004Y-68750004D02*
X115500000Y-68750004D01*
%TO.N,Net-(J2-Pin_2)*%
X109500000Y-132000000D02*
X109500000Y-136250000D01*
X112000000Y-138750000D02*
X135104898Y-138750000D01*
X109500000Y-136250000D02*
X112000000Y-138750000D01*
X135104898Y-138750000D02*
X140854898Y-133000000D01*
X109500000Y-132000000D02*
X109500000Y-131250000D01*
X110250000Y-131250000D02*
X109500000Y-132000000D01*
X110250004Y-131250000D02*
X110250000Y-131250000D01*
X109500000Y-131250000D02*
X109500000Y-109750000D01*
X115500000Y-126000004D02*
X110250004Y-131250000D01*
X109500000Y-109645106D02*
X109500000Y-109750000D01*
X109500000Y-109750000D02*
X109500000Y-87000000D01*
X115500000Y-103645106D02*
X109500000Y-109645106D01*
X109500000Y-87000000D02*
X109500000Y-65250008D01*
X115500000Y-81500004D02*
X110000004Y-87000000D01*
X110000004Y-87000000D02*
X109500000Y-87000000D01*
X109500000Y-65250008D02*
X115500000Y-59250008D01*
%TO.N,Net-(J2-Pin_1)*%
X121250000Y-71000000D02*
X121250000Y-93250000D01*
X121250000Y-93250000D02*
X121250000Y-115250000D01*
X119000000Y-91000000D02*
X121250000Y-93250000D01*
X115500000Y-91000000D02*
X119000000Y-91000000D01*
X115500000Y-113145102D02*
X119145102Y-113145102D01*
X119145102Y-113145102D02*
X121250000Y-115250000D01*
X121250000Y-115250000D02*
X121250000Y-128500000D01*
%TD*%
M02*
