M48
; DRILL file {KiCad 8.0.2-1} date 2025-03-11T13:02:53-0400
; FORMAT={-:-/ absolute / inch / decimal}
; #@! TF.CreationDate,2025-03-11T13:02:53-04:00
; #@! TF.GenerationSoftware,Kicad,Pcbnew,8.0.2-1
; #@! TF.FileFunction,Plated,1,2,PTH
FMAT,2
INCH
; #@! TA.AperFunction,Plated,PTH,ViaDrill
T1C0.0118
; #@! TA.AperFunction,Plated,PTH,ComponentDrill
T2C0.0280
; #@! TA.AperFunction,Plated,PTH,ComponentDrill
T3C0.0300
; #@! TA.AperFunction,Plated,PTH,ComponentDrill
T4C0.0394
; #@! TA.AperFunction,Plated,PTH,ComponentDrill
T5C0.0750
%
G90
G05
T1
X5.3839Y-3.7303
X5.6594Y-3.4055
X5.7185Y-3.7303
X5.9941Y-3.002
X6.1122Y-2.7657
X6.1909Y-3.0512
X6.25Y-3.1102
X6.2697Y-2.9331
X6.2697Y-3.0807
T2
X6.0965Y-3.3674
X6.0965Y-5.668
X6.1965Y-3.3674
X6.1965Y-5.668
X6.2965Y-3.3674
X6.2965Y-5.668
X6.3965Y-3.3674
X6.3965Y-5.668
X6.4965Y-3.3674
X6.4965Y-5.668
X6.5965Y-3.3674
X6.5965Y-5.668
T3
X5.0626Y-2.9012
X5.0626Y-4.4335
X5.1626Y-2.9012
X5.1626Y-4.4335
X5.2626Y-2.9012
X5.2626Y-4.4335
X5.3626Y-2.9012
X5.3626Y-4.4335
T4
X5.8957Y-1.6685
X5.8957Y-1.7685
X5.8957Y-1.8685
X5.8957Y-1.9685
X5.8957Y-2.0685
X5.8957Y-2.1685
X5.8957Y-2.2685
X5.8957Y-2.3685
X5.8957Y-2.4685
X5.8957Y-2.5685
X5.8957Y-2.6685
X5.8957Y-2.7685
X5.8957Y-2.8685
X5.8957Y-2.9685
X5.8957Y-3.0685
X6.4957Y-1.6685
X6.4957Y-1.7685
X6.4957Y-1.8685
X6.4957Y-1.9685
X6.4957Y-2.0685
X6.4957Y-2.1685
X6.4957Y-2.2685
X6.4957Y-2.3685
X6.4957Y-2.4685
X6.4957Y-2.5685
X6.4957Y-2.6685
X6.4957Y-2.7685
X6.4957Y-2.8685
X6.4957Y-2.9685
X6.4957Y-3.0685
T5
X4.5472Y-2.3327
X4.5472Y-2.7067
X4.5472Y-3.2087
X4.5472Y-3.5827
X4.5472Y-4.0805
X4.5472Y-4.4545
X4.5472Y-4.9606
X4.5472Y-5.3346
X5.1616Y-2.4311
X5.1715Y-5.2362
X5.5356Y-2.4311
X5.5455Y-5.2362
M30
