%TF.GenerationSoftware,KiCad,Pcbnew,8.0.2-1*%
%TF.CreationDate,2024-11-16T17:54:22-05:00*%
%TF.ProjectId,JB_PCB,4a425f50-4342-42e6-9b69-6361645f7063,rev?*%
%TF.SameCoordinates,Original*%
%TF.FileFunction,Copper,L1,Top*%
%TF.FilePolarity,Positive*%
%FSLAX46Y46*%
G04 Gerber Fmt 4.6, Leading zero omitted, Abs format (unit mm)*
G04 Created by KiCad (PCBNEW 8.0.2-1) date 2024-11-16 17:54:22*
%MOMM*%
%LPD*%
G01*
G04 APERTURE LIST*
%ADD10C,0.300000*%
%TA.AperFunction,NonConductor*%
%ADD11C,0.300000*%
%TD*%
%TA.AperFunction,NonConductor*%
%ADD12C,0.200000*%
%TD*%
%TA.AperFunction,ComponentPad*%
%ADD13C,1.905000*%
%TD*%
%TA.AperFunction,ComponentPad*%
%ADD14C,1.524000*%
%TD*%
%TA.AperFunction,ComponentPad*%
%ADD15C,2.413000*%
%TD*%
%TA.AperFunction,ComponentPad*%
%ADD16O,1.600000X1.600000*%
%TD*%
%TA.AperFunction,ComponentPad*%
%ADD17R,1.600000X1.600000*%
%TD*%
%TA.AperFunction,ViaPad*%
%ADD18C,0.600000*%
%TD*%
%TA.AperFunction,Conductor*%
%ADD19C,0.200000*%
%TD*%
%TA.AperFunction,Conductor*%
%ADD20C,0.800000*%
%TD*%
G04 APERTURE END LIST*
D10*
D11*
X129285716Y-31628329D02*
X129000001Y-31628329D01*
X129000001Y-31628329D02*
X128857144Y-31699758D01*
X128857144Y-31699758D02*
X128785716Y-31771186D01*
X128785716Y-31771186D02*
X128642858Y-31985472D01*
X128642858Y-31985472D02*
X128571430Y-32271186D01*
X128571430Y-32271186D02*
X128571430Y-32842615D01*
X128571430Y-32842615D02*
X128642858Y-32985472D01*
X128642858Y-32985472D02*
X128714287Y-33056901D01*
X128714287Y-33056901D02*
X128857144Y-33128329D01*
X128857144Y-33128329D02*
X129142858Y-33128329D01*
X129142858Y-33128329D02*
X129285716Y-33056901D01*
X129285716Y-33056901D02*
X129357144Y-32985472D01*
X129357144Y-32985472D02*
X129428573Y-32842615D01*
X129428573Y-32842615D02*
X129428573Y-32485472D01*
X129428573Y-32485472D02*
X129357144Y-32342615D01*
X129357144Y-32342615D02*
X129285716Y-32271186D01*
X129285716Y-32271186D02*
X129142858Y-32199758D01*
X129142858Y-32199758D02*
X128857144Y-32199758D01*
X128857144Y-32199758D02*
X128714287Y-32271186D01*
X128714287Y-32271186D02*
X128642858Y-32342615D01*
X128642858Y-32342615D02*
X128571430Y-32485472D01*
X130714287Y-31628329D02*
X130428572Y-31628329D01*
X130428572Y-31628329D02*
X130285715Y-31699758D01*
X130285715Y-31699758D02*
X130214287Y-31771186D01*
X130214287Y-31771186D02*
X130071429Y-31985472D01*
X130071429Y-31985472D02*
X130000001Y-32271186D01*
X130000001Y-32271186D02*
X130000001Y-32842615D01*
X130000001Y-32842615D02*
X130071429Y-32985472D01*
X130071429Y-32985472D02*
X130142858Y-33056901D01*
X130142858Y-33056901D02*
X130285715Y-33128329D01*
X130285715Y-33128329D02*
X130571429Y-33128329D01*
X130571429Y-33128329D02*
X130714287Y-33056901D01*
X130714287Y-33056901D02*
X130785715Y-32985472D01*
X130785715Y-32985472D02*
X130857144Y-32842615D01*
X130857144Y-32842615D02*
X130857144Y-32485472D01*
X130857144Y-32485472D02*
X130785715Y-32342615D01*
X130785715Y-32342615D02*
X130714287Y-32271186D01*
X130714287Y-32271186D02*
X130571429Y-32199758D01*
X130571429Y-32199758D02*
X130285715Y-32199758D01*
X130285715Y-32199758D02*
X130142858Y-32271186D01*
X130142858Y-32271186D02*
X130071429Y-32342615D01*
X130071429Y-32342615D02*
X130000001Y-32485472D01*
X131500000Y-32985472D02*
X131571429Y-33056901D01*
X131571429Y-33056901D02*
X131500000Y-33128329D01*
X131500000Y-33128329D02*
X131428572Y-33056901D01*
X131428572Y-33056901D02*
X131500000Y-32985472D01*
X131500000Y-32985472D02*
X131500000Y-33128329D01*
X132500001Y-31628329D02*
X132642858Y-31628329D01*
X132642858Y-31628329D02*
X132785715Y-31699758D01*
X132785715Y-31699758D02*
X132857144Y-31771186D01*
X132857144Y-31771186D02*
X132928572Y-31914043D01*
X132928572Y-31914043D02*
X133000001Y-32199758D01*
X133000001Y-32199758D02*
X133000001Y-32556901D01*
X133000001Y-32556901D02*
X132928572Y-32842615D01*
X132928572Y-32842615D02*
X132857144Y-32985472D01*
X132857144Y-32985472D02*
X132785715Y-33056901D01*
X132785715Y-33056901D02*
X132642858Y-33128329D01*
X132642858Y-33128329D02*
X132500001Y-33128329D01*
X132500001Y-33128329D02*
X132357144Y-33056901D01*
X132357144Y-33056901D02*
X132285715Y-32985472D01*
X132285715Y-32985472D02*
X132214286Y-32842615D01*
X132214286Y-32842615D02*
X132142858Y-32556901D01*
X132142858Y-32556901D02*
X132142858Y-32199758D01*
X132142858Y-32199758D02*
X132214286Y-31914043D01*
X132214286Y-31914043D02*
X132285715Y-31771186D01*
X132285715Y-31771186D02*
X132357144Y-31699758D01*
X132357144Y-31699758D02*
X132500001Y-31628329D01*
X133928572Y-31628329D02*
X134071429Y-31628329D01*
X134071429Y-31628329D02*
X134214286Y-31699758D01*
X134214286Y-31699758D02*
X134285715Y-31771186D01*
X134285715Y-31771186D02*
X134357143Y-31914043D01*
X134357143Y-31914043D02*
X134428572Y-32199758D01*
X134428572Y-32199758D02*
X134428572Y-32556901D01*
X134428572Y-32556901D02*
X134357143Y-32842615D01*
X134357143Y-32842615D02*
X134285715Y-32985472D01*
X134285715Y-32985472D02*
X134214286Y-33056901D01*
X134214286Y-33056901D02*
X134071429Y-33128329D01*
X134071429Y-33128329D02*
X133928572Y-33128329D01*
X133928572Y-33128329D02*
X133785715Y-33056901D01*
X133785715Y-33056901D02*
X133714286Y-32985472D01*
X133714286Y-32985472D02*
X133642857Y-32842615D01*
X133642857Y-32842615D02*
X133571429Y-32556901D01*
X133571429Y-32556901D02*
X133571429Y-32199758D01*
X133571429Y-32199758D02*
X133642857Y-31914043D01*
X133642857Y-31914043D02*
X133714286Y-31771186D01*
X133714286Y-31771186D02*
X133785715Y-31699758D01*
X133785715Y-31699758D02*
X133928572Y-31628329D01*
X135357143Y-31628329D02*
X135500000Y-31628329D01*
X135500000Y-31628329D02*
X135642857Y-31699758D01*
X135642857Y-31699758D02*
X135714286Y-31771186D01*
X135714286Y-31771186D02*
X135785714Y-31914043D01*
X135785714Y-31914043D02*
X135857143Y-32199758D01*
X135857143Y-32199758D02*
X135857143Y-32556901D01*
X135857143Y-32556901D02*
X135785714Y-32842615D01*
X135785714Y-32842615D02*
X135714286Y-32985472D01*
X135714286Y-32985472D02*
X135642857Y-33056901D01*
X135642857Y-33056901D02*
X135500000Y-33128329D01*
X135500000Y-33128329D02*
X135357143Y-33128329D01*
X135357143Y-33128329D02*
X135214286Y-33056901D01*
X135214286Y-33056901D02*
X135142857Y-32985472D01*
X135142857Y-32985472D02*
X135071428Y-32842615D01*
X135071428Y-32842615D02*
X135000000Y-32556901D01*
X135000000Y-32556901D02*
X135000000Y-32199758D01*
X135000000Y-32199758D02*
X135071428Y-31914043D01*
X135071428Y-31914043D02*
X135142857Y-31771186D01*
X135142857Y-31771186D02*
X135214286Y-31699758D01*
X135214286Y-31699758D02*
X135357143Y-31628329D01*
X136785714Y-31628329D02*
X136928571Y-31628329D01*
X136928571Y-31628329D02*
X137071428Y-31699758D01*
X137071428Y-31699758D02*
X137142857Y-31771186D01*
X137142857Y-31771186D02*
X137214285Y-31914043D01*
X137214285Y-31914043D02*
X137285714Y-32199758D01*
X137285714Y-32199758D02*
X137285714Y-32556901D01*
X137285714Y-32556901D02*
X137214285Y-32842615D01*
X137214285Y-32842615D02*
X137142857Y-32985472D01*
X137142857Y-32985472D02*
X137071428Y-33056901D01*
X137071428Y-33056901D02*
X136928571Y-33128329D01*
X136928571Y-33128329D02*
X136785714Y-33128329D01*
X136785714Y-33128329D02*
X136642857Y-33056901D01*
X136642857Y-33056901D02*
X136571428Y-32985472D01*
X136571428Y-32985472D02*
X136499999Y-32842615D01*
X136499999Y-32842615D02*
X136428571Y-32556901D01*
X136428571Y-32556901D02*
X136428571Y-32199758D01*
X136428571Y-32199758D02*
X136499999Y-31914043D01*
X136499999Y-31914043D02*
X136571428Y-31771186D01*
X136571428Y-31771186D02*
X136642857Y-31699758D01*
X136642857Y-31699758D02*
X136785714Y-31628329D01*
X139071427Y-33128329D02*
X139071427Y-32128329D01*
X139071427Y-32271186D02*
X139142856Y-32199758D01*
X139142856Y-32199758D02*
X139285713Y-32128329D01*
X139285713Y-32128329D02*
X139499999Y-32128329D01*
X139499999Y-32128329D02*
X139642856Y-32199758D01*
X139642856Y-32199758D02*
X139714285Y-32342615D01*
X139714285Y-32342615D02*
X139714285Y-33128329D01*
X139714285Y-32342615D02*
X139785713Y-32199758D01*
X139785713Y-32199758D02*
X139928570Y-32128329D01*
X139928570Y-32128329D02*
X140142856Y-32128329D01*
X140142856Y-32128329D02*
X140285713Y-32199758D01*
X140285713Y-32199758D02*
X140357142Y-32342615D01*
X140357142Y-32342615D02*
X140357142Y-33128329D01*
X141071427Y-33128329D02*
X141071427Y-32128329D01*
X141071427Y-32271186D02*
X141142856Y-32199758D01*
X141142856Y-32199758D02*
X141285713Y-32128329D01*
X141285713Y-32128329D02*
X141499999Y-32128329D01*
X141499999Y-32128329D02*
X141642856Y-32199758D01*
X141642856Y-32199758D02*
X141714285Y-32342615D01*
X141714285Y-32342615D02*
X141714285Y-33128329D01*
X141714285Y-32342615D02*
X141785713Y-32199758D01*
X141785713Y-32199758D02*
X141928570Y-32128329D01*
X141928570Y-32128329D02*
X142142856Y-32128329D01*
X142142856Y-32128329D02*
X142285713Y-32199758D01*
X142285713Y-32199758D02*
X142357142Y-32342615D01*
X142357142Y-32342615D02*
X142357142Y-33128329D01*
D12*
X168500000Y-43000000D02*
X168500000Y-33663581D01*
X102500000Y-43000000D02*
X102500000Y-33663581D01*
X168500000Y-34250001D02*
X102500000Y-34250001D01*
X168500000Y-34250001D02*
X102500000Y-34250001D01*
X168500000Y-34250001D02*
X167373496Y-34836422D01*
X168500000Y-34250001D02*
X167373496Y-33663580D01*
X102500000Y-34250001D02*
X103626504Y-33663580D01*
X102500000Y-34250001D02*
X103626504Y-34836422D01*
D10*
D11*
X190878328Y-101410712D02*
X190878328Y-102267855D01*
X190878328Y-101839284D02*
X189378328Y-101839284D01*
X189378328Y-101839284D02*
X189592614Y-101982141D01*
X189592614Y-101982141D02*
X189735471Y-102124998D01*
X189735471Y-102124998D02*
X189806900Y-102267855D01*
X189378328Y-100482141D02*
X189378328Y-100339284D01*
X189378328Y-100339284D02*
X189449757Y-100196427D01*
X189449757Y-100196427D02*
X189521185Y-100124999D01*
X189521185Y-100124999D02*
X189664042Y-100053570D01*
X189664042Y-100053570D02*
X189949757Y-99982141D01*
X189949757Y-99982141D02*
X190306900Y-99982141D01*
X190306900Y-99982141D02*
X190592614Y-100053570D01*
X190592614Y-100053570D02*
X190735471Y-100124999D01*
X190735471Y-100124999D02*
X190806900Y-100196427D01*
X190806900Y-100196427D02*
X190878328Y-100339284D01*
X190878328Y-100339284D02*
X190878328Y-100482141D01*
X190878328Y-100482141D02*
X190806900Y-100624999D01*
X190806900Y-100624999D02*
X190735471Y-100696427D01*
X190735471Y-100696427D02*
X190592614Y-100767856D01*
X190592614Y-100767856D02*
X190306900Y-100839284D01*
X190306900Y-100839284D02*
X189949757Y-100839284D01*
X189949757Y-100839284D02*
X189664042Y-100767856D01*
X189664042Y-100767856D02*
X189521185Y-100696427D01*
X189521185Y-100696427D02*
X189449757Y-100624999D01*
X189449757Y-100624999D02*
X189378328Y-100482141D01*
X189521185Y-99410713D02*
X189449757Y-99339285D01*
X189449757Y-99339285D02*
X189378328Y-99196428D01*
X189378328Y-99196428D02*
X189378328Y-98839285D01*
X189378328Y-98839285D02*
X189449757Y-98696428D01*
X189449757Y-98696428D02*
X189521185Y-98624999D01*
X189521185Y-98624999D02*
X189664042Y-98553570D01*
X189664042Y-98553570D02*
X189806900Y-98553570D01*
X189806900Y-98553570D02*
X190021185Y-98624999D01*
X190021185Y-98624999D02*
X190878328Y-99482142D01*
X190878328Y-99482142D02*
X190878328Y-98553570D01*
X190735471Y-97910714D02*
X190806900Y-97839285D01*
X190806900Y-97839285D02*
X190878328Y-97910714D01*
X190878328Y-97910714D02*
X190806900Y-97982142D01*
X190806900Y-97982142D02*
X190735471Y-97910714D01*
X190735471Y-97910714D02*
X190878328Y-97910714D01*
X189521185Y-97267856D02*
X189449757Y-97196428D01*
X189449757Y-97196428D02*
X189378328Y-97053571D01*
X189378328Y-97053571D02*
X189378328Y-96696428D01*
X189378328Y-96696428D02*
X189449757Y-96553571D01*
X189449757Y-96553571D02*
X189521185Y-96482142D01*
X189521185Y-96482142D02*
X189664042Y-96410713D01*
X189664042Y-96410713D02*
X189806900Y-96410713D01*
X189806900Y-96410713D02*
X190021185Y-96482142D01*
X190021185Y-96482142D02*
X190878328Y-97339285D01*
X190878328Y-97339285D02*
X190878328Y-96410713D01*
X189378328Y-95053571D02*
X189378328Y-95767857D01*
X189378328Y-95767857D02*
X190092614Y-95839285D01*
X190092614Y-95839285D02*
X190021185Y-95767857D01*
X190021185Y-95767857D02*
X189949757Y-95625000D01*
X189949757Y-95625000D02*
X189949757Y-95267857D01*
X189949757Y-95267857D02*
X190021185Y-95125000D01*
X190021185Y-95125000D02*
X190092614Y-95053571D01*
X190092614Y-95053571D02*
X190235471Y-94982142D01*
X190235471Y-94982142D02*
X190592614Y-94982142D01*
X190592614Y-94982142D02*
X190735471Y-95053571D01*
X190735471Y-95053571D02*
X190806900Y-95125000D01*
X190806900Y-95125000D02*
X190878328Y-95267857D01*
X190878328Y-95267857D02*
X190878328Y-95625000D01*
X190878328Y-95625000D02*
X190806900Y-95767857D01*
X190806900Y-95767857D02*
X190735471Y-95839285D01*
X189378328Y-94053571D02*
X189378328Y-93910714D01*
X189378328Y-93910714D02*
X189449757Y-93767857D01*
X189449757Y-93767857D02*
X189521185Y-93696429D01*
X189521185Y-93696429D02*
X189664042Y-93625000D01*
X189664042Y-93625000D02*
X189949757Y-93553571D01*
X189949757Y-93553571D02*
X190306900Y-93553571D01*
X190306900Y-93553571D02*
X190592614Y-93625000D01*
X190592614Y-93625000D02*
X190735471Y-93696429D01*
X190735471Y-93696429D02*
X190806900Y-93767857D01*
X190806900Y-93767857D02*
X190878328Y-93910714D01*
X190878328Y-93910714D02*
X190878328Y-94053571D01*
X190878328Y-94053571D02*
X190806900Y-94196429D01*
X190806900Y-94196429D02*
X190735471Y-94267857D01*
X190735471Y-94267857D02*
X190592614Y-94339286D01*
X190592614Y-94339286D02*
X190306900Y-94410714D01*
X190306900Y-94410714D02*
X189949757Y-94410714D01*
X189949757Y-94410714D02*
X189664042Y-94339286D01*
X189664042Y-94339286D02*
X189521185Y-94267857D01*
X189521185Y-94267857D02*
X189449757Y-94196429D01*
X189449757Y-94196429D02*
X189378328Y-94053571D01*
X189378328Y-92625000D02*
X189378328Y-92482143D01*
X189378328Y-92482143D02*
X189449757Y-92339286D01*
X189449757Y-92339286D02*
X189521185Y-92267858D01*
X189521185Y-92267858D02*
X189664042Y-92196429D01*
X189664042Y-92196429D02*
X189949757Y-92125000D01*
X189949757Y-92125000D02*
X190306900Y-92125000D01*
X190306900Y-92125000D02*
X190592614Y-92196429D01*
X190592614Y-92196429D02*
X190735471Y-92267858D01*
X190735471Y-92267858D02*
X190806900Y-92339286D01*
X190806900Y-92339286D02*
X190878328Y-92482143D01*
X190878328Y-92482143D02*
X190878328Y-92625000D01*
X190878328Y-92625000D02*
X190806900Y-92767858D01*
X190806900Y-92767858D02*
X190735471Y-92839286D01*
X190735471Y-92839286D02*
X190592614Y-92910715D01*
X190592614Y-92910715D02*
X190306900Y-92982143D01*
X190306900Y-92982143D02*
X189949757Y-92982143D01*
X189949757Y-92982143D02*
X189664042Y-92910715D01*
X189664042Y-92910715D02*
X189521185Y-92839286D01*
X189521185Y-92839286D02*
X189449757Y-92767858D01*
X189449757Y-92767858D02*
X189378328Y-92625000D01*
X190878328Y-90339287D02*
X189878328Y-90339287D01*
X190021185Y-90339287D02*
X189949757Y-90267858D01*
X189949757Y-90267858D02*
X189878328Y-90125001D01*
X189878328Y-90125001D02*
X189878328Y-89910715D01*
X189878328Y-89910715D02*
X189949757Y-89767858D01*
X189949757Y-89767858D02*
X190092614Y-89696430D01*
X190092614Y-89696430D02*
X190878328Y-89696430D01*
X190092614Y-89696430D02*
X189949757Y-89625001D01*
X189949757Y-89625001D02*
X189878328Y-89482144D01*
X189878328Y-89482144D02*
X189878328Y-89267858D01*
X189878328Y-89267858D02*
X189949757Y-89125001D01*
X189949757Y-89125001D02*
X190092614Y-89053572D01*
X190092614Y-89053572D02*
X190878328Y-89053572D01*
X190878328Y-88339287D02*
X189878328Y-88339287D01*
X190021185Y-88339287D02*
X189949757Y-88267858D01*
X189949757Y-88267858D02*
X189878328Y-88125001D01*
X189878328Y-88125001D02*
X189878328Y-87910715D01*
X189878328Y-87910715D02*
X189949757Y-87767858D01*
X189949757Y-87767858D02*
X190092614Y-87696430D01*
X190092614Y-87696430D02*
X190878328Y-87696430D01*
X190092614Y-87696430D02*
X189949757Y-87625001D01*
X189949757Y-87625001D02*
X189878328Y-87482144D01*
X189878328Y-87482144D02*
X189878328Y-87267858D01*
X189878328Y-87267858D02*
X189949757Y-87125001D01*
X189949757Y-87125001D02*
X190092614Y-87053572D01*
X190092614Y-87053572D02*
X190878328Y-87053572D01*
D12*
X169000000Y-43500000D02*
X192586420Y-43500000D01*
X169000000Y-145750000D02*
X192586420Y-145750000D01*
X192000000Y-43500000D02*
X192000000Y-145750000D01*
X192000000Y-43500000D02*
X192000000Y-145750000D01*
X192000000Y-43500000D02*
X192586421Y-44626504D01*
X192000000Y-43500000D02*
X191413579Y-44626504D01*
X192000000Y-145750000D02*
X191413579Y-144623496D01*
X192000000Y-145750000D02*
X192586421Y-144623496D01*
D13*
%TO.P,PWMGND1,1,Pin_1*%
%TO.N,Net-(ARD_PWR1-Pin_1)*%
X152946200Y-108145100D03*
%TO.P,PWMGND1,2,Pin_2*%
X152946200Y-103145100D03*
%TD*%
D14*
%TO.P,U1,VCC,VCC*%
%TO.N,Net-(A1-+5V)*%
X136210000Y-112610000D03*
%TO.P,U1,RO,RO*%
%TO.N,Net-(A1-D10)*%
X136210000Y-73690000D03*
%TO.P,U1,RE,RE*%
%TO.N,Net-(A1-D12)*%
X133670000Y-73690000D03*
%TO.P,U1,GND,GND*%
%TO.N,Net-(ARD_PWR1-Pin_1)*%
X128590000Y-112610000D03*
%TO.P,U1,DI,DI*%
%TO.N,Net-(A1-D11)*%
X128590000Y-73690000D03*
%TO.P,U1,DE,DE*%
%TO.N,Net-(A1-D12)*%
X131130000Y-73690000D03*
%TO.P,U1,B*%
%TO.N,N/C*%
X133670000Y-112610000D03*
%TO.P,U1,A*%
X131130000Y-112610000D03*
%TD*%
D13*
%TO.P,PWM2,1,Pin_1*%
%TO.N,Net-(A1-D5)*%
X153000000Y-131000000D03*
%TO.P,PWM2,2,Pin_2*%
%TO.N,Net-(A1-D6)*%
X153000000Y-126000000D03*
%TD*%
D15*
%TO.P,MOT_PWR1,1,Pin_1*%
%TO.N,Net-(J2-Pin_1)*%
X131354902Y-133000000D03*
%TO.P,MOT_PWR1,2,Pin_2*%
%TO.N,Net-(J2-Pin_2)*%
X140854898Y-133000000D03*
%TD*%
%TO.P,J6,1,Pin_1*%
%TO.N,Net-(J2-Pin_1)*%
X115500000Y-135500000D03*
%TO.P,J6,2,Pin_2*%
%TO.N,Net-(J2-Pin_2)*%
X115500000Y-126000004D03*
%TD*%
%TO.P,J4,1,Pin_1*%
%TO.N,Net-(J2-Pin_1)*%
X115500000Y-113145102D03*
%TO.P,J4,2,Pin_2*%
%TO.N,Net-(J2-Pin_2)*%
X115500000Y-103645106D03*
%TD*%
%TO.P,J3,1,Pin_1*%
%TO.N,Net-(J2-Pin_1)*%
X115500000Y-91000000D03*
%TO.P,J3,2,Pin_2*%
%TO.N,Net-(J2-Pin_2)*%
X115500000Y-81500004D03*
%TD*%
%TO.P,J2,2,Pin_2*%
%TO.N,Net-(J2-Pin_2)*%
X115500000Y-59250008D03*
%TO.P,J2,1,Pin_1*%
%TO.N,Net-(J2-Pin_1)*%
X115500000Y-68750004D03*
%TD*%
%TO.P,ARD_PWR1,2,Pin_2*%
%TO.N,Net-(A1-VIN)*%
X140604898Y-61750000D03*
%TO.P,ARD_PWR1,1,Pin_1*%
%TO.N,Net-(ARD_PWR1-Pin_1)*%
X131104902Y-61750000D03*
%TD*%
D16*
%TO.P,A1,30,VIN*%
%TO.N,Net-(A1-VIN)*%
X149120000Y-95800000D03*
%TO.P,A1,29,GND*%
%TO.N,Net-(ARD_PWR1-Pin_1)*%
X149120000Y-93260000D03*
%TO.P,A1,28,~{RESET}*%
%TO.N,unconnected-(A1-~{RESET}-Pad28)*%
X149120000Y-90720000D03*
%TO.P,A1,27,+5V*%
%TO.N,Net-(A1-+5V)*%
X149120000Y-88180000D03*
%TO.P,A1,26,A7*%
%TO.N,unconnected-(A1-A7-Pad26)*%
X149120000Y-85640000D03*
%TO.P,A1,25,A6*%
%TO.N,unconnected-(A1-A6-Pad25)*%
X149120000Y-83100000D03*
%TO.P,A1,24,A5*%
%TO.N,unconnected-(A1-A5-Pad24)*%
X149120000Y-80560000D03*
%TO.P,A1,23,A4*%
%TO.N,unconnected-(A1-A4-Pad23)*%
X149120000Y-78020000D03*
%TO.P,A1,22,A3*%
%TO.N,unconnected-(A1-A3-Pad22)*%
X149120000Y-75480000D03*
%TO.P,A1,21,A2*%
%TO.N,unconnected-(A1-A2-Pad21)*%
X149120000Y-72940000D03*
%TO.P,A1,20,A1*%
%TO.N,unconnected-(A1-A1-Pad20)*%
X149120000Y-70400000D03*
%TO.P,A1,19,A0*%
%TO.N,unconnected-(A1-A0-Pad19)*%
X149120000Y-67860000D03*
%TO.P,A1,18,AREF*%
%TO.N,unconnected-(A1-AREF-Pad18)*%
X149120000Y-65320000D03*
%TO.P,A1,17,3V3*%
%TO.N,unconnected-(A1-3V3-Pad17)*%
X149120000Y-62780000D03*
%TO.P,A1,16,D13*%
%TO.N,unconnected-(A1-D13-Pad16)*%
X149120000Y-60240000D03*
%TO.P,A1,15,D12*%
%TO.N,Net-(A1-D12)*%
X164360000Y-60240000D03*
%TO.P,A1,14,D11*%
%TO.N,Net-(A1-D11)*%
X164360000Y-62780000D03*
%TO.P,A1,13,D10*%
%TO.N,Net-(A1-D10)*%
X164360000Y-65320000D03*
%TO.P,A1,12,D9*%
%TO.N,Net-(A1-D9)*%
X164360000Y-67860000D03*
%TO.P,A1,11,D8*%
%TO.N,unconnected-(A1-D8-Pad11)*%
X164360000Y-70400000D03*
%TO.P,A1,10,D7*%
%TO.N,unconnected-(A1-D7-Pad10)*%
X164360000Y-72940000D03*
%TO.P,A1,9,D6*%
%TO.N,Net-(A1-D6)*%
X164360000Y-75480000D03*
%TO.P,A1,8,D5*%
%TO.N,Net-(A1-D5)*%
X164360000Y-78020000D03*
%TO.P,A1,7,D4*%
%TO.N,unconnected-(A1-D4-Pad7)*%
X164360000Y-80560000D03*
%TO.P,A1,6,D3*%
%TO.N,Net-(A1-D3)*%
X164360000Y-83100000D03*
%TO.P,A1,5,D2*%
%TO.N,unconnected-(A1-D2-Pad5)*%
X164360000Y-85640000D03*
%TO.P,A1,4,GND*%
%TO.N,Net-(ARD_PWR1-Pin_1)*%
X164360000Y-88180000D03*
%TO.P,A1,3,~{RESET}*%
%TO.N,unconnected-(A1-~{RESET}-Pad3)*%
X164360000Y-90720000D03*
%TO.P,A1,2,D0/RX*%
%TO.N,unconnected-(A1-D0{slash}RX-Pad2)*%
X164360000Y-93260000D03*
D17*
%TO.P,A1,1,D1/TX*%
%TO.N,unconnected-(A1-D1{slash}TX-Pad1)*%
X164360000Y-95800000D03*
%TD*%
D13*
%TO.P,PWM1,1,Pin_1*%
%TO.N,Net-(A1-D3)*%
X153000000Y-119500000D03*
%TO.P,PWM1,2,Pin_2*%
%TO.N,Net-(A1-D9)*%
X153000000Y-114500000D03*
%TD*%
D18*
%TO.N,Net-(A1-D11)*%
X155500000Y-75250000D03*
%TD*%
D19*
%TO.N,Net-(A1-D11)*%
X155500000Y-75250000D02*
X155500000Y-71640000D01*
X155500000Y-71640000D02*
X164360000Y-62780000D01*
%TO.N,Net-(ARD_PWR1-Pin_1)*%
X128590000Y-112610000D02*
X133230000Y-117250000D01*
X133230000Y-117250000D02*
X143841300Y-117250000D01*
X143841300Y-117250000D02*
X152946200Y-108145100D01*
%TO.N,Net-(A1-D9)*%
X153000000Y-114500000D02*
X160000000Y-107500000D01*
X160000000Y-107500000D02*
X160000000Y-72220000D01*
X160000000Y-72220000D02*
X164360000Y-67860000D01*
%TO.N,Net-(A1-D5)*%
X153000000Y-131000000D02*
X162500000Y-121500000D01*
X162500000Y-121500000D02*
X162500000Y-79880000D01*
X162500000Y-79880000D02*
X164360000Y-78020000D01*
%TO.N,Net-(A1-D6)*%
X153000000Y-126000000D02*
X161750000Y-117250000D01*
X161750000Y-117250000D02*
X161750000Y-78090000D01*
X161750000Y-78090000D02*
X164360000Y-75480000D01*
%TO.N,Net-(ARD_PWR1-Pin_1)*%
X152946200Y-103145100D02*
X152946200Y-97086200D01*
X152946200Y-97086200D02*
X149120000Y-93260000D01*
X152946200Y-108145100D02*
X152946200Y-103145100D01*
X131104902Y-61750000D02*
X133354902Y-59500000D01*
X141250000Y-59500000D02*
X143250000Y-61500000D01*
X143250000Y-87390000D02*
X149120000Y-93260000D01*
X133354902Y-59500000D02*
X141250000Y-59500000D01*
X143250000Y-61500000D02*
X143250000Y-87390000D01*
%TO.N,Net-(A1-VIN)*%
X140604898Y-61750000D02*
X140604898Y-87284898D01*
X140604898Y-87284898D02*
X149120000Y-95800000D01*
D20*
%TO.N,Net-(J2-Pin_1)*%
X125750000Y-133000000D02*
X118000000Y-133000000D01*
X118000000Y-133000000D02*
X115500000Y-135500000D01*
X131354902Y-133000000D02*
X125750000Y-133000000D01*
X125750000Y-133000000D02*
X121250000Y-128500000D01*
X121250000Y-71000000D02*
X119000004Y-68750004D01*
X119000004Y-68750004D02*
X115500000Y-68750004D01*
%TO.N,Net-(J2-Pin_2)*%
X109500000Y-132000000D02*
X109500000Y-136250000D01*
X112000000Y-138750000D02*
X135104898Y-138750000D01*
X109500000Y-136250000D02*
X112000000Y-138750000D01*
X135104898Y-138750000D02*
X140854898Y-133000000D01*
X109500000Y-132000000D02*
X109500000Y-131250000D01*
X110250000Y-131250000D02*
X109500000Y-132000000D01*
X110250004Y-131250000D02*
X110250000Y-131250000D01*
X109500000Y-131250000D02*
X109500000Y-109750000D01*
X115500000Y-126000004D02*
X110250004Y-131250000D01*
X109500000Y-109645106D02*
X109500000Y-109750000D01*
X109500000Y-109750000D02*
X109500000Y-87000000D01*
X115500000Y-103645106D02*
X109500000Y-109645106D01*
X109500000Y-87000000D02*
X109500000Y-65250008D01*
X115500000Y-81500004D02*
X110000004Y-87000000D01*
X110000004Y-87000000D02*
X109500000Y-87000000D01*
X109500000Y-65250008D02*
X115500000Y-59250008D01*
%TO.N,Net-(J2-Pin_1)*%
X121250000Y-71000000D02*
X121250000Y-93250000D01*
X121250000Y-93250000D02*
X121250000Y-115250000D01*
X119000000Y-91000000D02*
X121250000Y-93250000D01*
X115500000Y-91000000D02*
X119000000Y-91000000D01*
X115500000Y-113145102D02*
X119145102Y-113145102D01*
X119145102Y-113145102D02*
X121250000Y-115250000D01*
X121250000Y-115250000D02*
X121250000Y-128500000D01*
%TD*%
M02*
