%TF.GenerationSoftware,KiCad,Pcbnew,8.0.2-1*%
%TF.CreationDate,2025-03-11T13:02:56-04:00*%
%TF.ProjectId,JB_PCB,4a425f50-4342-42e6-9b69-6361645f7063,rev?*%
%TF.SameCoordinates,Original*%
%TF.FileFunction,Soldermask,Top*%
%TF.FilePolarity,Negative*%
%FSLAX46Y46*%
G04 Gerber Fmt 4.6, Leading zero omitted, Abs format (unit mm)*
G04 Created by KiCad (PCBNEW 8.0.2-1) date 2025-03-11 13:02:56*
%MOMM*%
%LPD*%
G01*
G04 APERTURE LIST*
%ADD10C,5.100000*%
%ADD11C,0.200000*%
%ADD12C,2.413000*%
%ADD13C,1.270000*%
%ADD14C,3.200000*%
%ADD15R,1.600000X1.600000*%
%ADD16O,1.600000X1.600000*%
%ADD17C,1.524000*%
%TA.AperFunction,Profile*%
%ADD18C,0.050000*%
%TD*%
G04 APERTURE END LIST*
D10*
X128550000Y-41750000D02*
G75*
G02*
X123450000Y-41750000I-2550000J0D01*
G01*
X123450000Y-41750000D02*
G75*
G02*
X128550000Y-41750000I2550000J0D01*
G01*
D11*
X121000000Y-41500000D02*
X131000000Y-41500000D01*
X131000000Y-51000000D01*
X121000000Y-51000000D01*
X121000000Y-41500000D01*
G36*
X121000000Y-41500000D02*
G01*
X131000000Y-41500000D01*
X131000000Y-51000000D01*
X121000000Y-51000000D01*
X121000000Y-41500000D01*
G37*
D12*
%TO.C,J2*%
X115500000Y-68750004D03*
X115500000Y-59250008D03*
%TD*%
D13*
%TO.C,REF\u002A\u002A*%
X154850000Y-143968000D03*
X157390000Y-143968000D03*
X159930000Y-143968000D03*
X162470000Y-143968000D03*
X165010000Y-143968000D03*
X167550000Y-143968000D03*
%TD*%
D12*
%TO.C,MOT_PWR1*%
X131354902Y-133000000D03*
X140854898Y-133000000D03*
%TD*%
D14*
%TO.C,REF\u002A\u002A*%
X111000000Y-49000000D03*
%TD*%
D12*
%TO.C,J4*%
X115500000Y-113145102D03*
X115500000Y-103645106D03*
%TD*%
D14*
%TO.C,REF\u002A\u002A*%
X159500000Y-152500000D03*
%TD*%
D13*
%TO.C,J1*%
X154850000Y-85532000D03*
X157390000Y-85532000D03*
X159930000Y-85532000D03*
X162470000Y-85532000D03*
X165010000Y-85532000D03*
X167550000Y-85532000D03*
%TD*%
D15*
%TO.C,A1*%
X164990000Y-77940000D03*
D16*
X164990000Y-75400000D03*
X164990000Y-72860000D03*
X164990000Y-70320000D03*
X164990000Y-67780000D03*
X164990000Y-65240000D03*
X164990000Y-62700000D03*
X164990000Y-60160000D03*
X164990000Y-57620000D03*
X164990000Y-55080000D03*
X164990000Y-52540000D03*
X164990000Y-50000000D03*
X164990000Y-47460000D03*
X164990000Y-44920000D03*
X164990000Y-42380000D03*
X149750000Y-42380000D03*
X149750000Y-44920000D03*
X149750000Y-47460000D03*
X149750000Y-50000000D03*
X149750000Y-52540000D03*
X149750000Y-55080000D03*
X149750000Y-57620000D03*
X149750000Y-60160000D03*
X149750000Y-62700000D03*
X149750000Y-65240000D03*
X149750000Y-67780000D03*
X149750000Y-70320000D03*
X149750000Y-72860000D03*
X149750000Y-75400000D03*
X149750000Y-77940000D03*
%TD*%
D12*
%TO.C,J6*%
X115500000Y-135500000D03*
X115500000Y-126000004D03*
%TD*%
D17*
%TO.C,U1*%
X131130000Y-112610000D03*
X133670000Y-112610000D03*
X131130000Y-73690000D03*
X128590000Y-73690000D03*
X128590000Y-112610000D03*
X133670000Y-73690000D03*
X136210000Y-73690000D03*
X136210000Y-112610000D03*
%TD*%
D12*
%TO.C,ARD_PWR1*%
X131104902Y-61750000D03*
X140604898Y-61750000D03*
%TD*%
%TO.C,J3*%
X115500000Y-91000000D03*
X115500000Y-81500004D03*
%TD*%
D18*
X102500000Y-34250000D02*
X176250000Y-34250000D01*
X176250000Y-157750000D01*
X102500000Y-157750000D01*
X102500000Y-34250000D01*
M02*
